# Blender v3.0.1 OBJ File: ''
# www.blender.org
mtllib StaticModel.mtl
o Cube.005
v 1.000000 1.000000 -1.000000
v -1.000000 1.000000 -1.000000
v -1.000000 1.000000 1.000000
v 1.000000 1.000000 1.000000
v 1.000000 -1.000000 1.000000
v -1.000000 -1.000000 1.000000
v -1.000000 -1.000000 -1.000000
v 1.000000 -1.000000 -1.000000
vt 0.625000 0.500000
vt 0.875000 0.500000
vt 0.875000 0.750000
vt 0.625000 0.750000
vt 0.375000 0.750000
vt 0.625000 1.000000
vt 0.375000 1.000000
vt 0.375000 0.000000
vt 0.625000 0.000000
vt 0.625000 0.250000
vt 0.375000 0.250000
vt 0.125000 0.500000
vt 0.375000 0.500000
vt 0.125000 0.750000
vn 0.0000 1.0000 0.0000
vn 0.0000 -0.0000 1.0000
vn -1.0000 -0.0000 0.0000
vn 0.0000 -1.0000 -0.0000
vn 1.0000 0.0000 0.0000
vn 0.0000 0.0000 -1.0000
g Cube.005_Cube.005_Material
usemtl Material
s 1
f 1/1/1 2/2/1 3/3/1 4/4/1
f 5/5/2 4/4/2 3/6/2 6/7/2
f 6/8/3 3/9/3 2/10/3 7/11/3
f 7/12/4 8/13/4 5/5/4 6/14/4
f 8/13/5 1/1/5 4/4/5 5/5/5
f 7/11/6 2/10/6 1/1/6 8/13/6
o Cube.006
v -3.616845 1.000000 -1.000000
v -5.616845 1.000000 -1.000000
v -5.616845 1.000000 1.000000
v -3.616845 1.000000 1.000000
v -3.616845 -1.000000 1.000000
v -5.616845 -1.000000 1.000000
v -5.616845 -1.000000 -1.000000
v -3.616845 -1.000000 -1.000000
vt 0.625000 0.500000
vt 0.875000 0.500000
vt 0.875000 0.750000
vt 0.625000 0.750000
vt 0.375000 0.750000
vt 0.625000 1.000000
vt 0.375000 1.000000
vt 0.375000 0.000000
vt 0.625000 0.000000
vt 0.625000 0.250000
vt 0.375000 0.250000
vt 0.125000 0.500000
vt 0.375000 0.500000
vt 0.125000 0.750000
vn 0.0000 1.0000 0.0000
vn 0.0000 -0.0000 1.0000
vn -1.0000 0.0000 0.0000
vn 0.0000 -1.0000 -0.0000
vn 1.0000 -0.0000 0.0000
vn 0.0000 0.0000 -1.0000
g Cube.006_Cube.006_Material
usemtl Material
s 1
f 9/15/7 10/16/7 11/17/7 12/18/7
f 13/19/8 12/18/8 11/20/8 14/21/8
f 14/22/9 11/23/9 10/24/9 15/25/9
f 15/26/10 16/27/10 13/19/10 14/28/10
f 16/27/11 9/15/11 12/18/11 13/19/11
f 15/25/12 10/24/12 9/15/12 16/27/12
o Cube.007
v 1.000000 1.000001 -4.981202
v -1.000000 1.000001 -4.981202
v -1.000000 1.000000 -2.981202
v 1.000000 1.000000 -2.981202
v 1.000000 -1.000000 -2.981202
v -1.000000 -1.000000 -2.981202
v -1.000000 -0.999999 -4.981202
v 1.000000 -0.999999 -4.981202
vt 0.625000 0.500000
vt 0.875000 0.500000
vt 0.875000 0.750000
vt 0.625000 0.750000
vt 0.375000 0.750000
vt 0.625000 1.000000
vt 0.375000 1.000000
vt 0.375000 0.000000
vt 0.625000 0.000000
vt 0.625000 0.250000
vt 0.375000 0.250000
vt 0.125000 0.500000
vt 0.375000 0.500000
vt 0.125000 0.750000
vn 0.0000 1.0000 0.0000
vn 0.0000 -0.0000 1.0000
vn -1.0000 0.0000 0.0000
vn 0.0000 -1.0000 -0.0000
vn 1.0000 0.0000 0.0000
vn 0.0000 0.0000 -1.0000
g Cube.007_Cube.007_Material
usemtl Material
s 1
f 17/29/13 18/30/13 19/31/13 20/32/13
f 21/33/14 20/32/14 19/34/14 22/35/14
f 22/36/15 19/37/15 18/38/15 23/39/15
f 23/40/16 24/41/16 21/33/16 22/42/16
f 24/41/17 17/29/17 20/32/17 21/33/17
f 23/39/18 18/38/18 17/29/18 24/41/18
o Cube.008
v 1.000000 1.000000 2.377467
v -1.000000 1.000000 2.377467
v -1.000000 0.999999 4.377467
v 1.000000 0.999999 4.377467
v 1.000000 -1.000001 4.377467
v -1.000000 -1.000001 4.377467
v -1.000000 -1.000000 2.377467
v 1.000000 -1.000000 2.377467
vt 0.625000 0.500000
vt 0.875000 0.500000
vt 0.875000 0.750000
vt 0.625000 0.750000
vt 0.375000 0.750000
vt 0.625000 1.000000
vt 0.375000 1.000000
vt 0.375000 0.000000
vt 0.625000 0.000000
vt 0.625000 0.250000
vt 0.375000 0.250000
vt 0.125000 0.500000
vt 0.375000 0.500000
vt 0.125000 0.750000
vn 0.0000 1.0000 0.0000
vn 0.0000 0.0000 1.0000
vn -1.0000 0.0000 0.0000
vn 0.0000 -1.0000 -0.0000
vn 1.0000 0.0000 0.0000
vn 0.0000 0.0000 -1.0000
g Cube.008_Cube.008_Material
usemtl Material
s 1
f 25/43/19 26/44/19 27/45/19 28/46/19
f 29/47/20 28/46/20 27/48/20 30/49/20
f 30/50/21 27/51/21 26/52/21 31/53/21
f 31/54/22 32/55/22 29/47/22 30/56/22
f 32/55/23 25/43/23 28/46/23 29/47/23
f 31/53/24 26/52/24 25/43/24 32/55/24
o Cube.009
v 4.504512 1.000000 -1.000000
v 2.504512 1.000000 -1.000000
v 2.504512 1.000000 1.000000
v 4.504512 1.000000 1.000000
v 4.504512 -1.000000 1.000000
v 2.504512 -1.000000 1.000000
v 2.504512 -1.000000 -1.000000
v 4.504512 -1.000000 -1.000000
vt 0.625000 0.500000
vt 0.875000 0.500000
vt 0.875000 0.750000
vt 0.625000 0.750000
vt 0.375000 0.750000
vt 0.625000 1.000000
vt 0.375000 1.000000
vt 0.375000 0.000000
vt 0.625000 0.000000
vt 0.625000 0.250000
vt 0.375000 0.250000
vt 0.125000 0.500000
vt 0.375000 0.500000
vt 0.125000 0.750000
vn 0.0000 1.0000 0.0000
vn 0.0000 -0.0000 1.0000
vn -1.0000 -0.0000 0.0000
vn 0.0000 -1.0000 -0.0000
vn 1.0000 0.0000 0.0000
vn 0.0000 0.0000 -1.0000
g Cube.009_Cube.009_Material
usemtl Material
s 1
f 33/57/25 34/58/25 35/59/25 36/60/25
f 37/61/26 36/60/26 35/62/26 38/63/26
f 38/64/27 35/65/27 34/66/27 39/67/27
f 39/68/28 40/69/28 37/61/28 38/70/28
f 40/69/29 33/57/29 36/60/29 37/61/29
f 39/67/30 34/66/30 33/57/30 40/69/30
