# Blender v3.6.4 OBJ File: ''
# www.blender.org
mtllib HighlightModel.mtl
o Cube
v -0.500000 0.500000 -0.000000
v -0.500000 -0.500000 0.000000
v 0.500000 0.500000 -0.000000
v 0.500000 -0.500000 0.000000
v -0.500000 0.500000 -0.000000
v -0.500000 -0.500000 0.000000
v 0.500000 0.500000 -0.000000
v 0.500000 -0.500000 0.000000
vt 0.000000 0.000000
vt 1.000000 0.000000
vt 1.000000 1.000000
vt 0.000000 1.000000
vt 0.000000 0.000000
vt 0.000000 1.000000
vt 1.000000 1.000000
vt 1.000000 0.000000
vn 0.0000 -0.0000 -1.0000
vn 0.0000 0.0000 1.0000
usemtl Material
s 1
f 2/1/1 1/2/1 3/3/1 4/4/1
f 6/5/2 8/6/2 7/7/2 5/8/2
